# 3ds Max Wavefront OBJ Exporter v0.97b - (c)2007 guruware
# File Created: 12.09.2015 15:47:18

mtllib 3d-model.mtl

#
# object Layer0_001
#

v  -178.1875 0.0000 3.1563
v  -178.1875 0.0000 -6.1563
v  178.1875 0.0000 -6.1563
v  -57.1647 0.0000 3.1563
v  -53.0300 0.0000 3.1563
v  178.1875 0.0000 3.1563
v  -57.1647 0.0000 4.8438
v  -53.0300 0.0000 4.8438
v  -57.1647 242.6875 3.1563
v  -57.1647 242.6875 4.8438
v  -53.0300 242.6875 4.8438
v  -53.0300 242.6875 3.1563
v  178.1875 242.6875 -6.1563
v  -178.1875 242.6875 -6.1563
v  -178.1875 242.6875 3.1563
v  178.1875 242.6875 3.1563
v  -178.1875 112.1955 3.1563
v  -178.1875 112.1955 0.2188
v  -178.1875 108.9361 0.2188
v  -178.1875 108.9361 3.1563
v  178.1875 108.9361 3.1563
v  178.1875 108.9361 0.2188
v  178.1875 112.1955 0.2188
v  178.1875 112.1955 3.1563
v  -57.1647 112.1955 3.1563
v  -53.0300 112.1955 3.1563
v  -57.1647 57.2972 4.8438
v  -53.0300 57.2972 4.8438
v  -57.1647 57.2972 3.1563
v  -57.1647 108.9361 3.1563
v  -53.0300 57.2972 3.1563
v  -53.0300 108.9361 3.1563
v  -53.0300 51.2972 4.8438
v  -57.1647 51.2972 4.8438
v  -53.0300 51.2972 3.1563
v  -57.1647 51.2972 3.1563
v  -59.2288 57.2972 4.8438
v  -59.2288 51.2972 4.8438
v  -59.2288 57.2972 3.1563
v  -59.2288 51.2972 3.1563
v  -51.2288 51.2972 4.8438
v  -51.2288 57.2972 4.8438
v  -51.2288 51.2972 3.1563
v  -51.2288 57.2972 3.1563
v  -57.1647 51.2972 6.1563
v  -53.0300 51.2972 6.1563
v  -53.0300 57.2972 6.1563
v  -57.1647 57.2972 6.1563
v  -53.0300 108.9361 0.2188
v  -53.0300 112.1955 0.2188
# 50 vertices

vn 0.0000 -1.0000 -0.0000
vn 0.0000 1.0000 -0.0000
vn -1.0000 0.0000 -0.0000
vn 0.0000 0.0000 -1.0000
vn 1.0000 0.0000 -0.0000
vn 0.0000 0.0000 1.0000
vn -0.0000 1.0000 -0.0000
# 7 vertex normals

vt 0.0000 0.0000 0.0000
vt 0.0000 0.4675 0.0000
vt 0.5043 0.4675 0.0000
vt 0.5043 1.0112 0.0000
vt 0.0000 1.0112 0.0000
vt 0.5215 0.4675 0.0000
vt 1.4849 0.4675 0.0000
vt 1.4849 1.0112 0.0000
vt 0.5215 1.0112 0.0000
vt 0.5043 0.2387 0.0000
vt 0.5215 0.2387 0.0000
vt 0.0070 0.2387 0.0000
vt 0.0070 1.0112 0.0000
vt 0.0000 0.2387 0.0000
vt 0.0000 0.4539 0.0000
vt -0.0070 1.0112 0.0000
vt -0.0070 0.2387 0.0000
vt 0.5043 0.0000 0.0000
vt 0.5215 0.0000 0.0000
vt 0.5215 0.2137 0.0000
vt 0.5043 0.2137 0.0000
vt -0.0070 0.2137 0.0000
vt -0.0070 0.0000 0.0000
vt 0.0000 0.2137 0.0000
vt 0.0070 0.0000 0.0000
vt 0.0070 0.2137 0.0000
vt 0.4957 0.2387 0.0000
vt 0.4957 0.2137 0.0000
vt 0.4957 0.0000 0.0000
vt 0.4957 -0.0070 0.0000
vt 0.5043 -0.0070 0.0000
vt -0.4957 -0.0070 0.0000
vt -0.4957 0.0000 0.0000
vt -0.5043 0.0000 0.0000
vt -0.5043 -0.0070 0.0000
vt 0.5290 0.2137 0.0000
vt 0.5290 0.2387 0.0000
vt -0.5215 -0.0070 0.0000
vt -0.5215 0.0000 0.0000
vt -0.5290 0.0000 0.0000
vt -0.5290 -0.0070 0.0000
vt 0.5215 -0.0070 0.0000
vt 0.5290 -0.0070 0.0000
vt 0.5290 0.0000 0.0000
vt 0.0125 0.2137 0.0000
vt 0.0125 0.2387 0.0000
vt -0.5043 -0.0125 0.0000
vt -0.5215 -0.0125 0.0000
vt -0.0125 0.2387 0.0000
vt -0.0125 0.2137 0.0000
vt 0.5043 -0.0125 0.0000
vt 0.5215 -0.0125 0.0000
vt 0.5043 0.4539 0.0000
vt 1.4849 0.0000 0.0000
vt 1.4849 0.4539 0.0000
vt 0.5215 0.4539 0.0000
vt 0.0000 0.0122 0.0000
vt 0.5215 0.0122 0.0000
vt -0.5215 0.0122 0.0000
vt 1.4849 0.0122 0.0000
vt -1.4849 0.0122 0.0000
vt -1.4849 -0.0000 0.0000
# 62 texture coords

g Layer0_001
usemtl wire_028089177
s off
f 1/1/1 2/1/1 3/1/1 4/1/1 
f 5/1/1 4/1/1 3/1/1 6/1/1 
f 7/1/1 4/1/1 5/1/1 8/1/1 
f 9/1/2 10/1/2 11/1/2 12/1/2 
f 9/1/2 12/1/2 13/1/2 14/1/2 
f 9/1/2 14/1/2 15/1/2 
f 13/1/2 12/1/2 16/1/2 
f 17/1/3 15/1/3 14/1/3 18/1/3 
f 19/1/3 18/1/3 14/1/3 2/1/3 
f 19/1/3 2/1/3 1/1/3 20/1/3 
f 3/1/4 2/1/4 14/1/4 13/1/4 
f 21/1/5 6/1/5 3/1/5 22/1/5 
f 23/1/5 22/1/5 3/1/5 13/1/5 
f 23/1/5 13/1/5 16/1/5 24/1/5 
f 17/2/6 25/3/6 9/4/6 15/5/6 
f 26/6/6 24/7/6 16/8/6 12/9/6 
f 27/10/6 28/11/6 11/9/6 10/4/6 
f 27/12/3 10/13/3 9/5/3 29/14/3 
f 29/14/3 9/5/3 25/2/3 30/15/3 
f 11/16/5 28/17/5 31/14/5 12/5/5 
f 12/5/5 31/14/5 32/15/5 26/2/5 
f 7/18/6 8/19/6 33/20/6 34/21/6 
f 33/22/5 8/23/5 5/1/5 35/24/5 
f 7/25/3 34/26/3 36/24/3 4/1/3 
f 37/27/6 38/28/6 34/21/6 27/10/6 
f 39/29/7 37/30/7 27/31/7 29/18/7 
f 38/26/3 37/12/3 39/14/3 40/24/3 
f 38/32/1 40/33/1 36/34/1 34/35/1 
f 28/11/6 33/20/6 41/36/6 42/37/6 
f 33/38/1 35/39/1 43/40/1 41/41/1 
f 42/17/5 41/22/5 43/24/5 44/14/5 
f 31/19/7 28/42/7 42/43/7 44/44/7 
f 45/21/6 46/20/6 47/11/6 48/10/6 
f 45/45/3 48/46/3 27/12/3 34/26/3 
f 45/47/1 34/35/1 33/38/1 46/48/1 
f 47/49/5 46/50/5 33/22/5 28/17/5 
f 27/31/7 48/51/7 47/52/7 28/42/7 
f 1/1/6 4/18/6 36/21/6 40/28/6 
f 20/15/6 1/1/6 40/28/6 39/27/6 
f 20/15/6 39/27/6 29/10/6 30/53/6 
f 5/19/6 6/54/6 21/55/6 43/36/6 
f 44/37/6 43/36/6 21/55/6 32/56/6 
f 44/37/6 32/56/6 31/11/6 
f 5/19/6 43/36/6 35/20/6 
f 19/15/6 49/56/6 50/6/6 18/2/6 
f 19/57/7 20/1/7 30/18/7 49/58/7 
f 49/58/7 30/18/7 32/19/7 
f 17/1/1 18/57/1 50/59/1 25/34/1 
f 25/34/1 50/59/1 26/39/1 
f 49/56/6 22/55/6 23/7/6 50/6/6 
f 49/58/7 32/19/7 21/54/7 22/60/7 
f 26/39/1 50/59/1 23/61/1 24/62/1 
f 30/53/6 32/56/6 26/6/6 25/3/6 
# 47 polygons - 6 triangles

